<?xml version="1.0" standalone="no"?>
<!DOCTYPE svg PUBLIC "-//W3C//DTD SVG 20010904//EN"
 "http://www.w3.org/TR/2001/REC-SVG-20010904/DTD/svg10.dtd">
<svg version="1.0" xmlns="http://www.w3.org/2000/svg"
 width="48.000000pt" height="48.000000pt" viewBox="0 0 48.000000 48.000000"
 preserveAspectRatio="xMidYMid meet">

<g transform="translate(0.000000,48.000000) scale(0.100000,-0.100000)"
fill="#000000" stroke="none">
<path d="M60 252 c0 -117 4 -172 12 -180 8 -8 63 -12 180 -12 161 0 168 1 168
20 0 19 -7 20 -160 20 l-160 0 0 160 c0 153 -1 160 -20 160 -19 0 -20 -7 -20
-168z"/>
<path d="M343 308 l-43 -42 -30 29 -31 29 -54 -54 c-40 -40 -52 -59 -46 -69 8
-12 17 -8 50 22 48 43 57 45 88 15 l23 -22 54 53 c31 31 52 59 49 67 -8 21
-15 18 -60 -28z"/>
</g>
</svg>
